<?xml version="1.0" encoding="utf-8"?>
<!-- Generator: Adobe Illustrator 16.0.0, SVG Export Plug-In . SVG Version: 6.00 Build 0)  -->
<!DOCTYPE svg PUBLIC "-//W3C//DTD SVG 1.1//EN" "http://www.w3.org/Graphics/SVG/1.1/DTD/svg11.dtd">
<svg version="1.1" id="Layer_7" xmlns="http://www.w3.org/2000/svg" xmlns:xlink="http://www.w3.org/1999/xlink" x="0px" y="0px"
	 width="203.998px" height="202.9px" viewBox="-1 -1.625 203.998 202.9" enable-background="new -1 -1.625 203.998 202.9"
	 xml:space="preserve">
<path fill="#FFFFFF" d="M40.998,36.5c0,2.209-1.791,4-4,4h-32c-2.209,0-4-1.791-4-4v-32c0-2.209,1.791-4,4-4h32c2.209,0,4,1.791,4,4
	V36.5z"/>
<path fill="#E6E7E8" stroke="#FFFFFF" stroke-miterlimit="10" d="M54.998,0.375c-2.209,0-4,1.791-4,4v32c0,2.209,1.791,4,4,4h96v-36
	c0,0-0.037-1.691-1.226-2.879c-1.189-1.188-2.774-1.121-2.774-1.121H54.998z"/>
<path fill="#E6E7E8" stroke="#FFFFFF" stroke-miterlimit="10" d="M50.998,159.274v36c0,0,0.037,1.691,1.225,2.879
	s2.775,1.121,2.775,1.121h92c0,0,1.588,0.066,2.879-1.225c1.104-1.104,1.121-2.775,1.121-2.775v-36H50.998z"/>
<path fill="#FFFFFF" stroke="#FFFFFF" stroke-miterlimit="10" d="M2.223,159.378C0.932,158.087,1,156.5,1,156.5v-102
	c-0.002-2.209,1.789-4,3.998-4h32c2.209,0,4,1.791,4,4v106v36c0,0,0.076,1.73,1.225,2.879L2.223,159.378z"/>
<path fill="#FFFFFF" stroke="#FFFFFF" stroke-miterlimit="10" d="M199.877,159.275c1.188-1.188,1.121-2.773,1.121-2.773v-112
	c0,0,0.065-1.588-1.226-2.879l-40-40c1.148,1.148,1.226,2.879,1.226,2.879v36v120c0,0,0,34.709,0,35.998
	c0,1.705-1.121,2.775-1.121,2.775L199.877,159.275z"/>
</svg>
